# File created by Blade
# Date/Time:  Thu Jan 22 19:08:58 2015
# Frame Rate: 120.000 fps
#------------------------------------------------------
:FULLY-SPECIFIED
:DEGREES
3317
root -2.812250 33.328807 -0.759337 9.436424 -2.285490 2.263109
RightUpLeg -3.607694 -9.446280 -1.981286
RightLeg -1.005719 -0.000000 0.000000
RightFoot -8.526111 -3.089358 3.971965
RightToeBase 5.238585 -0.000000 -0.000000
LeftUpLeg -3.529029 6.212187 3.514660
LeftLeg 0.413859 -0.000000 -0.000000
LeftFoot -7.153756 0.678231 -11.855995
LeftToeBase 7.527548 -0.000000 -0.000000
Spine -5.093418 -3.140237 -0.423489
RightShoulder -32.327725 -29.277318 -20.074512
RightArm -0.062764 55.023979 57.833654
RightForeArm 31.798117 -0.000000 14.810552
RightHand 19.298960 -0.000000 -38.701361
RightHandThumb1 -24.326973 -0.000000 -32.862282
LeftShoulder -31.400149 16.780897 29.840072
LeftArm -21.588352 -44.916552 -30.623787
LeftForeArm -18.792905 -0.000000 4.044460
LeftHand -3.660089 -0.000000 10.272498
LeftHandThumb1 -26.253704 0.000000 33.147579
Head 21.772829 21.718082 5.570924
3318
root -2.808636 33.328599 -0.762390 9.423986 -2.317383 2.272198
RightUpLeg -3.619595 -9.581226 -1.984372
RightLeg -0.987202 -0.000000 0.000000
RightFoot -8.516503 -2.966661 3.913336
RightToeBase 5.194352 -0.000000 -0.000000
LeftUpLeg -3.512246 6.230952 3.497956
LeftLeg 0.405195 -0.000000 -0.000000
LeftFoot -7.150769 0.679932 -11.848267
LeftToeBase 7.543452 -0.000000 -0.000000
Spine -5.110515 -3.097830 -0.411354
RightShoulder -32.332721 -29.217207 -20.099756
RightArm -0.048280 55.235539 57.851205
RightForeArm 31.951931 -0.000000 14.923012
RightHand 19.456614 -0.000000 -38.605732
RightHandThumb1 -24.326973 -0.000000 -32.862282
LeftShoulder -31.438665 16.736481 29.820769
LeftArm -21.598813 -45.075340 -30.596217
LeftForeArm -18.746933 -0.000000 4.123743
LeftHand -3.768484 -0.000000 10.260792
LeftHandThumb1 -26.253704 0.000000 33.147579
Head 21.936966 21.677762 5.625517
3319
root -2.806876 33.328593 -0.766552 9.415820 -2.354506 2.271798
RightUpLeg -3.625978 -9.612815 -1.984945
RightLeg -0.987787 -0.000000 0.000000
RightFoot -8.512058 -2.913135 3.892535
RightToeBase 5.236211 -0.000000 -0.000000
LeftUpLeg -3.497937 6.262268 3.492768
LeftLeg 0.393270 -0.000000 -0.000000
LeftFoot -7.142508 0.680015 -11.837371
LeftToeBase 7.557735 -0.000000 -0.000000
Spine -5.132617 -3.046964 -0.394537
RightShoulder -32.353638 -29.192389 -20.107721
RightArm 0.036981 55.494451 57.946342
RightForeArm 31.927331 0.000000 15.048048
RightHand 19.552033 0.000000 -38.552344
RightHandThumb1 -24.326973 -0.000000 -32.862282
LeftShoulder -31.466201 16.722836 29.783906
LeftArm -21.623030 -45.259646 -30.577497
LeftForeArm -18.697182 -0.000000 4.269837
LeftHand -3.916157 -0.000000 10.226421
LeftHandThumb1 -26.253704 0.000000 33.147579
Head 22.095231 21.616971 5.671720
3320
root -2.805944 33.327965 -0.772149 9.419188 -2.393735 2.276487
RightUpLeg -3.608139 -9.471839 -2.005224
RightLeg -1.061703 -0.000000 0.000000
RightFoot -8.482952 -2.998384 3.919556
RightToeBase 5.262393 -0.000000 -0.000000
LeftUpLeg -3.503268 6.272074 3.483768
LeftLeg 0.394306 -0.000000 -0.000000
LeftFoot -7.148845 0.696760 -11.850061
LeftToeBase 7.527407 -0.000000 -0.000000
Spine -5.160555 -3.001591 -0.394885
RightShoulder -32.399721 -29.163242 -20.089387
RightArm 0.195869 55.715592 58.081140
RightForeArm 31.896892 0.000000 15.150107
RightHand 19.639857 0.000000 -38.484029
RightHandThumb1 -24.326973 -0.000000 -32.862282
LeftShoulder -31.486949 16.684576 29.776619
LeftArm -21.655434 -45.338833 -30.571071
LeftForeArm -18.720467 -0.000000 4.414013
LeftHand -3.993123 0.000000 10.273954
LeftHandThumb1 -26.253704 0.000000 33.147579
Head 22.221002 21.524418 5.723558
3321
root -2.803544 33.328002 -0.776809 9.411529 -2.418691 2.287598
RightUpLeg -3.631412 -9.603453 -2.005084
RightLeg -1.034881 -0.000000 0.000000
RightFoot -8.479277 -2.881235 3.868508
RightToeBase 5.212939 -0.000000 -0.000000
LeftUpLeg -3.497548 6.298231 3.466834
LeftLeg 0.390122 -0.000000 -0.000000
LeftFoot -7.131959 0.682232 -11.871677
LeftToeBase 7.495785 -0.000000 -0.000000
Spine -5.182056 -2.971271 -0.388345
RightShoulder -32.451208 -29.138165 -20.081665
RightArm 0.390183 55.949725 58.256982
RightForeArm 31.828881 -0.000000 15.282496
RightHand 19.605279 -0.000000 -38.631528
RightHandThumb1 -24.326973 -0.000000 -32.862282
LeftShoulder -31.496045 16.678066 29.745990
LeftArm -21.660662 -45.415465 -30.598301
LeftForeArm -18.587723 -0.000000 4.530705
LeftHand -4.066896 0.000000 9.795538
LeftHandThumb1 -26.253704 0.000000 33.147579
Head 22.357596 21.429344 5.755252
3322
root -2.801348 33.328246 -0.781834 9.403089 -2.436572 2.295604
RightUpLeg -3.630543 -9.648380 -2.012952
RightLeg -1.049418 -0.000000 0.000000
RightFoot -8.463672 -2.830463 3.864026
RightToeBase 5.201100 -0.000000 -0.000000
LeftUpLeg -3.493278 6.295017 3.455540
LeftLeg 0.389904 -0.000000 -0.000000
LeftFoot -7.133550 0.697398 -11.884765
LeftToeBase 7.540306 -0.000000 -0.000000
Spine -5.198281 -2.970125 -0.379850
RightShoulder -32.471108 -29.102781 -20.071118
RightArm 0.613630 56.117509 58.417404
RightForeArm 31.775872 -0.000000 15.303758
RightHand 19.829479 0.000000 -38.988941
RightHandThumb1 -24.326973 -0.000000 -32.862282
LeftShoulder -31.515913 16.623712 29.749867
LeftArm -21.726849 -45.372833 -30.598074
LeftForeArm -18.777221 -0.000000 4.633252
LeftHand -3.639042 -0.000000 9.188921
LeftHandThumb1 -26.253704 0.000000 33.147579
Head 22.468353 21.349742 5.777711
3323
root -2.800170 33.328059 -0.788077 9.401654 -2.458478 2.296610
RightUpLeg -3.603772 -9.490228 -2.031627
RightLeg -1.120367 -0.000000 0.000000
RightFoot -8.423283 -2.940464 3.886415
RightToeBase 5.486876 -0.000000 -0.000000
LeftUpLeg -3.498459 6.319398 3.452206
LeftLeg 0.389586 -0.000000 -0.000000
LeftFoot -7.131426 0.677633 -11.907937
LeftToeBase 7.575085 -0.000000 -0.000000
Spine -5.218361 -2.942455 -0.371354
RightShoulder -32.418370 -28.928991 -20.143528
RightArm 0.460929 56.163718 58.253072
RightForeArm 31.867414 0.000000 15.333801
RightHand 19.880198 0.000000 -39.124856
RightHandThumb1 -24.326973 -0.000000 -32.862282
LeftShoulder -31.543596 16.561487 29.748941
LeftArm -21.798728 -45.479157 -30.583192
LeftForeArm -18.483459 0.000000 4.882896
LeftHand -3.793184 -0.000000 9.515940
LeftHandThumb1 -26.253704 0.000000 33.147579
Head 22.567016 21.231681 5.809127
3324
root -2.797614 33.328115 -0.792846 9.393171 -2.469050 2.306092
RightUpLeg -3.620449 -9.632714 -2.030073
RightLeg -1.102523 -0.000000 0.000000
RightFoot -8.433030 -2.817983 3.861089
RightToeBase 5.246328 -0.000000 -0.000000
LeftUpLeg -3.496662 6.332693 3.436926
LeftLeg 0.389240 -0.000000 -0.000000
LeftFoot -7.121814 0.676260 -11.903972
LeftToeBase 7.548926 -0.000000 -0.000000
Spine -5.231186 -2.932367 -0.360585
RightShoulder -32.381577 -28.814961 -20.194834
RightArm 0.417662 56.248414 58.195675
RightForeArm 32.029624 -0.000000 15.369168
RightHand 19.947925 -0.000000 -39.351471
RightHandThumb1 -24.326973 -0.000000 -32.862282
LeftShoulder -31.564193 16.467325 29.755603
LeftArm -21.818693 -45.408667 -30.589318
LeftForeArm -18.397107 -0.000000 4.957703
LeftHand -3.714613 -0.000000 9.686193
LeftHandThumb1 -26.253704 0.000000 33.147579
Head 22.635125 21.130851 5.817256
3325
root -2.796093 33.328234 -0.797916 9.387960 -2.478278 2.308682
RightUpLeg -3.623670 -9.659444 -2.032506
RightLeg -1.108648 -0.000000 0.000000
RightFoot -8.420274 -2.783421 3.845713
RightToeBase 5.251465 -0.000000 -0.000000
LeftUpLeg -3.496941 6.356451 3.430985
LeftLeg 0.385373 -0.000000 -0.000000
LeftFoot -7.110978 0.657616 -11.903567
LeftToeBase 7.584646 -0.000000 -0.000000
Spine -5.250865 -2.919493 -0.339922
RightShoulder -32.359943 -28.672790 -20.298044
RightArm 0.372764 56.411654 58.170912
RightForeArm 32.121506 -0.000000 15.389912
RightHand 19.997399 0.000000 -39.503533
RightHandThumb1 -24.326973 -0.000000 -32.862282
LeftShoulder -31.588123 16.451949 29.711993
LeftArm -21.785349 -45.428407 -30.617863
LeftForeArm -18.340401 0.000000 5.007604
LeftHand -3.606745 -0.000000 9.715327
LeftHandThumb1 -26.253704 0.000000 33.147579
Head 22.706739 21.019040 5.794650
3326
root -2.794964 33.328531 -0.802734 9.380709 -2.489342 2.312016
RightUpLeg -3.616113 -9.640278 -2.039430
RightLeg -1.133035 -0.000000 0.000000
RightFoot -8.401748 -2.802281 3.853085
RightToeBase 5.241338 -0.000000 -0.000000
LeftUpLeg -3.492438 6.373700 3.426867
LeftLeg 0.380936 -0.000000 -0.000000
LeftFoot -7.105036 0.644371 -11.924900
LeftToeBase 7.560394 -0.000000 -0.000000
Spine -5.262377 -2.912227 -0.334628
RightShoulder -32.359378 -28.671455 -20.254437
RightArm 0.525233 56.688720 58.293498
RightForeArm 32.357260 -0.000000 15.435651
RightHand 20.042457 -0.000000 -39.603838
RightHandThumb1 -24.326973 -0.000000 -32.862282
LeftShoulder -31.615070 16.429033 29.698722
LeftArm -21.807571 -45.460908 -30.614605
LeftForeArm -18.447564 -0.000000 5.056187
LeftHand -3.411128 -0.000000 9.541162
LeftHandThumb1 -26.253704 0.000000 33.147579
Head 22.745425 20.921318 5.823716
